<svg width="22" height="22" viewBox="0 0 22 22" fill="none" xmlns="http://www.w3.org/2000/svg">
<path fill-rule="evenodd" clip-rule="evenodd" d="M2.17574 6.24913C2.98737 5.28419 4.37888 4.8125 6.41667 4.8125H15.5833C17.6211 4.8125 19.0126 5.28419 19.8243 6.24913C20.628 7.20469 20.7045 8.46006 20.5756 9.63061L19.8878 16.9674C19.7868 17.9098 19.5502 18.943 18.7088 19.7117C17.8736 20.4748 16.5796 20.8542 14.6667 20.8542H7.33333C5.42039 20.8542 4.1264 20.4748 3.29119 19.7117C2.44975 18.943 2.21322 17.9098 2.11224 16.9674L2.11127 16.9583L1.42436 9.63063C1.29554 8.46008 1.37199 7.2047 2.17574 6.24913ZM3.228 7.13421C2.79559 7.6483 2.67387 8.42076 2.79166 9.48522L2.79293 9.49665L3.4799 16.8254C3.57161 17.6773 3.76146 18.279 4.2186 18.6966C4.68276 19.1206 5.56128 19.4792 7.33333 19.4792H14.6667C16.4387 19.4792 17.3172 19.1206 17.7814 18.6966C18.2385 18.279 18.4284 17.6773 18.5201 16.8254L19.2082 9.48521C19.326 8.42075 19.2044 7.6483 18.772 7.13421C18.3461 6.62789 17.4597 6.1875 15.5833 6.1875H6.41667C4.54028 6.1875 3.65388 6.62789 3.228 7.13421Z" fill="#F1F1F1"/>
<path fill-rule="evenodd" clip-rule="evenodd" d="M8.06089 3.71282C8.02195 4.0111 8.02085 4.35006 8.02085 4.76665V5.49998C8.02085 5.87968 7.71304 6.18748 7.33335 6.18748C6.95365 6.18748 6.64585 5.87968 6.64585 5.49998L6.64584 4.74282C6.64582 4.35459 6.6458 3.93054 6.69746 3.53482C6.751 3.12479 6.86571 2.68949 7.13445 2.30065C7.69979 1.48268 8.73539 1.14581 10.2667 1.14581H11.7333C13.2646 1.14581 14.3002 1.48268 14.8656 2.30065C15.1343 2.68949 15.249 3.12479 15.3026 3.53482C15.3542 3.93054 15.3542 4.35459 15.3542 4.74283L15.3542 5.49998C15.3542 5.87968 15.0464 6.18748 14.6667 6.18748C14.287 6.18748 13.9792 5.87968 13.9792 5.49998V4.76665C13.9792 4.35006 13.9781 4.0111 13.9391 3.71282C13.901 3.42074 13.8324 3.22412 13.7344 3.08243C13.5665 2.83936 13.1354 2.52081 11.7333 2.52081H10.2667C8.86463 2.52081 8.43357 2.83936 8.26558 3.08243C8.16765 3.22412 8.09903 3.42074 8.06089 3.71282Z" fill="#F1F1F1"/>
<path fill-rule="evenodd" clip-rule="evenodd" d="M9.85489 11.6882C9.85418 11.7537 9.85417 11.8283 9.85417 11.9167V12.8608C9.85417 13.1189 9.85642 13.3087 9.87883 13.4698C9.90038 13.6246 9.9346 13.7 9.96361 13.7409C9.99596 13.7865 10.1572 13.9792 11 13.9792C11.8466 13.9792 12.0059 13.7847 12.0376 13.7395C12.0668 13.6978 12.1009 13.6213 12.1221 13.4646C12.1441 13.3017 12.1458 13.111 12.1458 12.8517V11.9167C12.1458 11.8283 12.1458 11.7537 12.1451 11.6882C12.0797 11.6875 12.0051 11.6875 11.9167 11.6875H10.0833C9.99492 11.6875 9.92033 11.6875 9.85489 11.6882ZM10.0532 10.3125C10.0633 10.3125 10.0733 10.3125 10.0833 10.3125H11.9167C11.9267 10.3125 11.9367 10.3125 11.9468 10.3125C12.1495 10.3125 12.3549 10.3124 12.5225 10.331C12.6934 10.35 12.9772 10.4008 13.2049 10.6285C13.4326 10.8561 13.4833 11.1399 13.5023 11.3108C13.5209 11.4784 13.5209 11.6839 13.5208 11.8866C13.5208 11.8966 13.5208 11.9066 13.5208 11.9167V12.862C13.5208 13.1 13.5208 13.3817 13.4847 13.649C13.4472 13.9263 13.365 14.241 13.1639 14.5283C12.7349 15.1407 11.9775 15.3542 11 15.3542C10.0278 15.3542 9.27237 15.1435 8.84181 14.536C8.63936 14.2504 8.55556 13.9367 8.51695 13.6593C8.47921 13.3881 8.47917 13.1024 8.47917 12.8608V11.9167C8.47917 11.9066 8.47916 11.8966 8.47916 11.8866C8.47912 11.6839 8.47907 11.4784 8.49769 11.3108C8.51668 11.1399 8.56744 10.8561 8.79511 10.6285C9.02279 10.4008 9.3066 10.35 9.47746 10.331C9.64509 10.3124 9.85051 10.3125 10.0532 10.3125Z" fill="#F1F1F1"/>
<path fill-rule="evenodd" clip-rule="evenodd" d="M20.4018 9.67893C20.6252 9.98601 20.5573 10.416 20.2502 10.6393C18.0354 12.2501 15.505 13.2081 12.9192 13.5337C12.5425 13.5812 12.1987 13.3143 12.1512 12.9375C12.1038 12.5608 12.3707 12.217 12.7474 12.1695C15.1117 11.8718 17.4213 10.9965 19.4415 9.52729C19.7485 9.30397 20.1785 9.37186 20.4018 9.67893Z" fill="#F1F1F1"/>
<path fill-rule="evenodd" clip-rule="evenodd" d="M1.83434 9.9425C2.0488 9.62917 2.47666 9.54902 2.78999 9.76348C4.75981 11.1117 6.98111 11.9243 9.24318 12.1776C9.62052 12.2198 9.89216 12.56 9.84991 12.9373C9.80766 13.3147 9.46751 13.5863 9.09018 13.544C6.60391 13.2657 4.16855 12.3733 2.01337 10.8982C1.70003 10.6837 1.61988 10.2558 1.83434 9.9425Z" fill="#F1F1F1"/>
</svg>
