<svg width="20" height="20" viewBox="0 0 20 20" fill="none" xmlns="http://www.w3.org/2000/svg">
<path fill-rule="evenodd" clip-rule="evenodd" d="M12.0347 1.03468C12.6674 0.401939 13.5607 0.145813 14.5833 0.145813H16.4167C17.4393 0.145813 18.3326 0.401939 18.9653 1.03468C19.5981 1.66742 19.8542 2.56067 19.8542 3.58331V5.41665C19.8542 6.43929 19.5981 7.33254 18.9653 7.96528C18.3326 8.59802 17.4393 8.85415 16.4167 8.85415H14.5833C13.5607 8.85415 12.6674 8.59802 12.0347 7.96528C11.402 7.33254 11.1458 6.43929 11.1458 5.41665V3.58331C11.1458 2.56067 11.402 1.66742 12.0347 1.03468ZM13.007 2.00695C12.7231 2.29088 12.5208 2.77262 12.5208 3.58331V5.41665C12.5208 6.22734 12.7231 6.70908 13.007 6.99301C13.2909 7.27694 13.7727 7.47915 14.5833 7.47915H16.4167C17.2274 7.47915 17.7091 7.27694 17.993 6.99301C18.277 6.70908 18.4792 6.22734 18.4792 5.41665V3.58331C18.4792 2.77262 18.277 2.29088 17.993 2.00695C17.7091 1.72302 17.2274 1.52081 16.4167 1.52081H14.5833C13.7727 1.52081 13.2909 1.72302 13.007 2.00695Z" fill="#F1F1F1"/>
<path fill-rule="evenodd" clip-rule="evenodd" d="M1.03471 12.0347C1.66745 11.4019 2.5607 11.1458 3.58334 11.1458H5.41668C6.43932 11.1458 7.33257 11.4019 7.96531 12.0347C8.59805 12.6674 8.85418 13.5607 8.85418 14.5833V16.4166C8.85418 17.4393 8.59805 18.3325 7.96531 18.9653C7.33257 19.598 6.43932 19.8541 5.41668 19.8541H3.58334C2.5607 19.8541 1.66745 19.598 1.03471 18.9653C0.401969 18.3325 0.145844 17.4393 0.145844 16.4166V14.5833C0.145844 13.5607 0.401969 12.6674 1.03471 12.0347ZM2.00698 13.0069C1.72305 13.2909 1.52084 13.7726 1.52084 14.5833V16.4166C1.52084 17.2273 1.72305 17.7091 2.00698 17.993C2.29091 18.2769 2.77265 18.4791 3.58334 18.4791H5.41668C6.22737 18.4791 6.70911 18.2769 6.99304 17.993C7.27697 17.7091 7.47918 17.2273 7.47918 16.4166V14.5833C7.47918 13.7726 7.27697 13.2909 6.99304 13.0069C6.70911 12.723 6.22737 12.5208 5.41668 12.5208H3.58334C2.77265 12.5208 2.29091 12.723 2.00698 13.0069Z" fill="#F1F1F1"/>
<path fill-rule="evenodd" clip-rule="evenodd" d="M4.50001 1.52081C2.85466 1.52081 1.52084 2.85463 1.52084 4.49998C1.52084 6.14533 2.85466 7.47915 4.50001 7.47915C6.14536 7.47915 7.47918 6.14533 7.47918 4.49998C7.47918 2.85463 6.14536 1.52081 4.50001 1.52081ZM0.145844 4.49998C0.145844 2.09524 2.09527 0.145813 4.50001 0.145813C6.90475 0.145813 8.85418 2.09524 8.85418 4.49998C8.85418 6.90472 6.90475 8.85415 4.50001 8.85415C2.09527 8.85415 0.145844 6.90472 0.145844 4.49998Z" fill="#F1F1F1"/>
<path fill-rule="evenodd" clip-rule="evenodd" d="M15.5 12.5208C13.8547 12.5208 12.5208 13.8546 12.5208 15.5C12.5208 17.1453 13.8547 18.4791 15.5 18.4791C17.1454 18.4791 18.4792 17.1453 18.4792 15.5C18.4792 13.8546 17.1454 12.5208 15.5 12.5208ZM11.1458 15.5C11.1458 13.0952 13.0953 11.1458 15.5 11.1458C17.9047 11.1458 19.8542 13.0952 19.8542 15.5C19.8542 17.9047 17.9047 19.8541 15.5 19.8541C13.0953 19.8541 11.1458 17.9047 11.1458 15.5Z" fill="#F1F1F1"/>
</svg>
