<svg width="22" height="22" viewBox="0 0 22 22" fill="none" xmlns="http://www.w3.org/2000/svg">
<path fill-rule="evenodd" clip-rule="evenodd" d="M11 2.52081C6.31969 2.52081 2.52083 6.31968 2.52083 11C2.52083 15.6803 6.31969 19.4791 11 19.4791C15.6803 19.4791 19.4792 15.6803 19.4792 11C19.4792 6.31968 15.6803 2.52081 11 2.52081ZM1.14583 11C1.14583 5.56028 5.5603 1.14581 11 1.14581C16.4397 1.14581 20.8542 5.56028 20.8542 11C20.8542 16.4397 16.4397 20.8541 11 20.8541C5.5603 20.8541 1.14583 16.4397 1.14583 11Z" fill="#F1F1F1"/>
<path fill-rule="evenodd" clip-rule="evenodd" d="M10.6608 6.19666C11.0405 6.19666 11.3483 6.50446 11.3483 6.88416V10.6425C11.3483 10.7832 11.4021 10.9872 11.5216 11.1968C11.6411 11.4064 11.7892 11.5564 11.9096 11.6277L11.9115 11.6288L11.9115 11.6288L14.7531 13.3246C15.0792 13.5192 15.1858 13.9413 14.9912 14.2673C14.7966 14.5934 14.3746 14.6999 14.0485 14.5054L11.2087 12.8106C11.2084 12.8104 11.208 12.8102 11.2077 12.81C10.8336 12.588 10.5329 12.2387 10.3272 11.878C10.1212 11.5169 9.97333 11.0792 9.97333 10.6425V6.88416C9.97333 6.50446 10.2811 6.19666 10.6608 6.19666Z" fill="#F1F1F1"/>
</svg>
