<svg width="22" height="22" viewBox="0 0 22 22" fill="none" xmlns="http://www.w3.org/2000/svg">
<path fill-rule="evenodd" clip-rule="evenodd" d="M10.8075 3.1579C10.4665 3.1579 10.1635 3.21752 9.97012 3.30412L9.96819 3.30498L4.55834 5.70732C3.84824 6.0206 3.79958 6.30404 3.79958 6.33415C3.79958 6.36426 3.84823 6.64769 4.55834 6.96097L4.55986 6.96165L9.97013 9.36417C10.1635 9.45078 10.4665 9.5104 10.8075 9.5104C11.1485 9.5104 11.4515 9.45078 11.6449 9.36418L11.6468 9.36331L17.0551 6.96165L17.0567 6.96097C17.7668 6.64769 17.8154 6.36426 17.8154 6.33415C17.8154 6.30404 17.7668 6.0206 17.0567 5.70732L11.6468 3.30498L11.6449 3.30412C11.4515 3.21752 11.1485 3.1579 10.8075 3.1579ZM12.2058 2.04872C11.7852 1.86065 11.2774 1.7829 10.8075 1.7829C10.3376 1.7829 9.8298 1.86065 9.40924 2.04872C9.40889 2.04887 9.40855 2.04902 9.40821 2.04918L4.00333 4.44931C4.00309 4.44942 4.00357 4.4492 4.00333 4.44931C3.15541 4.82357 2.42458 5.45243 2.42458 6.33415C2.42458 7.21584 3.15463 7.84436 4.00251 8.21863C4.00224 8.21851 4.00279 8.21875 4.00251 8.21863L9.40821 10.6191C9.4086 10.6193 9.40899 10.6195 9.40938 10.6196C9.82991 10.8077 10.3377 10.8854 10.8075 10.8854C11.2773 10.8854 11.7851 10.8077 12.2057 10.6196C12.2061 10.6194 12.2064 10.6193 12.2068 10.6191L17.6117 8.21899C17.6114 8.21909 17.6119 8.21888 17.6117 8.21899C18.4596 7.84473 19.1904 7.21587 19.1904 6.33415C19.1904 5.45239 18.4603 4.82384 17.6123 4.44959C17.6121 4.4495 17.6125 4.44968 17.6123 4.44959L12.2068 2.04918C12.2064 2.04902 12.2061 2.04887 12.2058 2.04872Z" fill="#F1F1F1"/>
<path fill-rule="evenodd" clip-rule="evenodd" d="M2.75 9.39581C3.1297 9.39581 3.4375 9.70362 3.4375 10.0833C3.4375 10.3064 3.52576 10.5929 3.70324 10.8657C3.88071 11.1384 4.10673 11.335 4.31104 11.4252L4.31273 11.426L10.5356 14.1937C10.5354 14.1936 10.5358 14.1938 10.5356 14.1937C10.8367 14.3267 11.174 14.3247 11.4599 14.1958L11.4631 14.1943L17.6873 11.426L17.689 11.4252C17.8933 11.335 18.1193 11.1384 18.2968 10.8657C18.4742 10.5929 18.5625 10.3064 18.5625 10.0833C18.5625 9.70362 18.8703 9.39581 19.25 9.39581C19.6297 9.39581 19.9375 9.70362 19.9375 10.0833C19.9375 10.6302 19.737 11.1733 19.4493 11.6155C19.1617 12.0575 18.7463 12.4612 18.2451 12.6827C18.2449 12.6828 18.2454 12.6826 18.2451 12.6827L12.0251 15.4492C12.0245 15.4495 12.0239 15.4497 12.0233 15.45C11.3748 15.7418 10.6308 15.7394 9.9794 15.4512L3.75563 12.6831C3.75532 12.6829 3.755 12.6828 3.75469 12.6826C3.25359 12.4611 2.83827 12.0575 2.55072 11.6155C2.26299 11.1733 2.0625 10.6302 2.0625 10.0833C2.0625 9.70362 2.3703 9.39581 2.75 9.39581Z" fill="#F1F1F1"/>
<path fill-rule="evenodd" clip-rule="evenodd" d="M2.75 13.9791C3.1297 13.9791 3.4375 14.2869 3.4375 14.6666C3.4375 15.2448 3.77937 15.7706 4.31341 16.0096C4.31324 16.0095 4.31358 16.0097 4.31341 16.0096L10.5356 18.777C10.5354 18.7769 10.5358 18.7771 10.5356 18.777C10.8367 18.91 11.174 18.908 11.4599 18.7791L11.4631 18.7776L17.6861 16.0098C17.6859 16.0099 17.6863 16.0097 17.6861 16.0098C18.2201 15.7708 18.5625 15.2448 18.5625 14.6666C18.5625 14.2869 18.8703 13.9791 19.25 13.9791C19.6297 13.9791 19.9375 14.2869 19.9375 14.6666C19.9375 15.7932 19.2713 16.8073 18.2473 17.2651L18.2461 17.2656L12.0251 20.0325C12.0245 20.0328 12.0239 20.0331 12.0233 20.0333C11.3748 20.3252 10.6308 20.3227 9.9794 20.0345L3.75274 17.2651C2.72874 16.8073 2.0625 15.7932 2.0625 14.6666C2.0625 14.2869 2.3703 13.9791 2.75 13.9791Z" fill="#F1F1F1"/>
</svg>
