<svg width="22" height="22" viewBox="0 0 22 22" fill="none" xmlns="http://www.w3.org/2000/svg">
<path fill-rule="evenodd" clip-rule="evenodd" d="M11 8.9375C9.86091 8.9375 8.9375 9.86091 8.9375 11C8.9375 12.1391 9.86091 13.0625 11 13.0625C12.1391 13.0625 13.0625 12.1391 13.0625 11C13.0625 9.86091 12.1391 8.9375 11 8.9375ZM7.5625 11C7.5625 9.10152 9.10152 7.5625 11 7.5625C12.8985 7.5625 14.4375 9.10152 14.4375 11C14.4375 12.8985 12.8985 14.4375 11 14.4375C9.10152 14.4375 7.5625 12.8985 7.5625 11Z" fill="#F1F1F1"/>
<path fill-rule="evenodd" clip-rule="evenodd" d="M8.80318 3.45599C8.55782 3.0472 8.04109 2.92004 7.65735 3.14834L7.64735 3.15429L6.06147 4.0617C5.55971 4.34842 5.3866 4.99848 5.67362 5.49523L5.07833 5.83917L5.67314 5.49441C6.16362 6.34061 6.29547 7.26808 5.85734 8.02837C5.41926 8.78856 4.55106 9.13917 3.575 9.13917C2.99455 9.13917 2.52083 9.61734 2.52083 10.1933V11.8067C2.52083 12.3827 2.99455 12.8608 3.575 12.8608C4.55106 12.8608 5.41926 13.2114 5.85734 13.9716C6.29542 14.7318 6.16365 15.6591 5.67333 16.5053C5.38672 17.0019 5.5595 17.6515 6.0611 17.9381L7.6574 18.8516C8.04113 19.0799 8.55779 18.9528 8.80316 18.544L8.90168 18.3739C9.39199 17.528 10.131 16.9515 11.008 16.9515C11.8857 16.9515 12.6225 17.5284 13.1083 18.3753C13.1085 18.3757 13.1087 18.376 13.1089 18.3764L13.206 18.544C13.4513 18.9528 13.9681 19.08 14.3518 18.8517L14.3618 18.8457L15.9477 17.9383C16.4481 17.6523 16.6239 17.0113 16.3348 16.5035C15.8453 15.6578 15.7141 14.7313 16.1518 13.9716C16.5899 13.2114 17.4581 12.8608 18.4342 12.8608C19.0146 12.8608 19.4883 12.3827 19.4883 11.8067V10.1933C19.4883 9.61288 19.0102 9.13917 18.4342 9.13917C17.4581 9.13917 16.5899 8.78856 16.1518 8.02837C15.7138 7.26823 15.8455 6.34097 16.3357 5.4949C16.6225 4.99819 16.4497 4.34857 15.9481 4.06192L14.3518 3.14843C13.968 2.92013 13.4513 3.0472 13.206 3.45599L13.1075 3.62613C12.6172 4.47204 11.8781 5.04854 11.0011 5.04854C10.1236 5.04854 9.38686 4.47172 8.90103 3.62499C8.90076 3.62452 8.90049 3.62405 8.90022 3.62358L8.80318 3.45599ZM6.95978 1.96342C8.02259 1.33517 9.37069 1.72061 9.98668 2.75599L9.99086 2.76301L10.0916 2.9372L10.0931 2.93975C10.4323 3.53142 10.7861 3.67354 11.0011 3.67354C11.2172 3.67354 11.5737 3.53021 11.9175 2.9372C11.9175 2.9373 11.9176 2.9371 11.9175 2.9372L12.0224 2.75596C12.6384 1.72058 13.9866 1.33517 15.0494 1.96343L16.6303 2.86808C17.7968 3.5347 18.1924 5.02986 17.5261 6.18311L17.5256 6.18393C17.1819 6.77689 17.2359 7.15567 17.3432 7.34184C17.4505 7.52811 17.7511 7.76417 18.4342 7.76417C19.7648 7.76417 20.8633 8.84879 20.8633 10.1933V11.8067C20.8633 13.1373 19.7787 14.2358 18.4342 14.2358C17.7511 14.2358 17.4505 14.4719 17.3432 14.6582C17.2359 14.8443 17.1819 15.2231 17.5256 15.8161L17.5278 15.8197C18.1907 16.9799 17.7977 18.4645 16.6306 19.1317C16.6305 19.1318 16.6308 19.1316 16.6306 19.1317L15.0493 20.0366C13.9865 20.6648 12.6385 20.2794 12.0225 19.244L12.0183 19.237L11.9175 19.0628L11.916 19.0602C11.5769 18.4686 11.2231 18.3265 11.008 18.3265C10.7919 18.3265 10.4355 18.4698 10.0916 19.0628C10.0916 19.0629 10.0917 19.0627 10.0916 19.0628L9.98672 19.244C9.37075 20.2794 8.02265 20.6648 6.95985 20.0366L5.3789 19.1319C5.37878 19.1318 5.37903 19.132 5.3789 19.1319C4.21262 18.4652 3.8168 16.97 4.48305 15.8169L4.48353 15.8161C4.82722 15.2231 4.77328 14.8443 4.666 14.6582C4.55865 14.4719 4.25811 14.2358 3.575 14.2358C2.23045 14.2358 1.14583 13.1373 1.14583 11.8067V10.1933C1.14583 8.86266 2.23045 7.76417 3.575 7.76417C4.25811 7.76417 4.55865 7.52811 4.666 7.34184C4.77328 7.15567 4.82722 6.77689 4.48353 6.18393L4.48305 6.18311C3.8168 5.02998 4.21224 3.53501 5.37853 2.8683L6.95978 1.96342Z" fill="#F1F1F1"/>
</svg>
